<svg xmlns="http://www.w3.org/2000/svg" viewBox="0 0 87.65 145.56"><defs><style>.cls-1{fill:none;stroke:#028293;stroke-miterlimit:10;stroke-width:7px;}</style></defs><title>Pin</title><g id="Layer_2" data-name="Layer 2"><g id="Layer_1-2" data-name="Layer 1"><path class="cls-1" d="M43.92,23H80.43a3.71,3.71,0,0,1,3.12,5.72l-18,28S60,67.3,58.23,71.18C51.06,87.11,43.87,113,43.87,140h0c0-33.41-7.45-53.4-15.14-69.06C26.95,67.3,22.27,57.7,22.27,57.7l-18.11-29A3.71,3.71,0,0,1,7.31,23Z"/><path class="cls-1" d="M43.73,69.51H7.22a3.71,3.71,0,0,1-3.12-5.72l18-28L40.6,5.28a3.71,3.71,0,0,1,6.32,0L65.38,34.82l18.11,29a3.71,3.71,0,0,1-3.15,5.68Z"/></g></g></svg>