<svg xmlns="http://www.w3.org/2000/svg" viewBox="0 0 59.01 22.19"><defs><style>.cls-1{fill:#666;fill-opacity:0.49;}</style></defs><title>Shadow</title><g id="Layer_2" data-name="Layer 2"><g id="Layer_1-2" data-name="Layer 1"><path class="cls-1" d="M40.22,18.67l9,3.22c.45.16,1-.05,1-.39l-.08-6.68a.44.44,0,0,1,.33-.38l8.27-3.22c.44-.17.44-.59,0-.75l-8.35-3A.44.44,0,0,1,50,7.1L49.9.43c0-.33-.56-.54-1-.36L40,3.51a1,1,0,0,1-.67,0L30.4.3c-.45-.16-1,.05-1,.39l.08,6.68a1.14,1.14,0,0,1-.42.74s-.37.62-3.84.92C19,9.55.33,11.22.33,11.22c-.44.17-.44.59,0,.75,0,0,18.74.8,25,1.37,2.87.26,3.81,1.1,3.81,1.1a1,1,0,0,1,.44.65l.08,6.68c0,.33.56.54,1,.36l8.87-3.45A1,1,0,0,1,40.22,18.67Z"/></g></g></svg>